<svg width="33" height="32" viewBox="0 0 33 32" fill="none" xmlns="http://www.w3.org/2000/svg">
<circle cx="16.7314" cy="16" r="16" fill="#D9D9D9"/>
<ellipse cx="16.7313" cy="16" rx="9.80645" ry="9.80645" fill="#210537"/>
<rect x="16.2152" y="1.03223" width="2.06452" height="4.12903" rx="1" fill="#210537"/>
<rect x="27.4435" y="5.16125" width="2.06452" height="4.12903" rx="1" transform="rotate(46 27.4435 5.16125)" fill="#210537"/>
<rect x="27.5701" y="17.5484" width="2.06452" height="4.12903" rx="1" transform="rotate(-90 27.5701 17.5484)" fill="#210537"/>
<rect x="1.76361" y="16.5161" width="2.06452" height="4.12903" rx="1" transform="rotate(-90 1.76361 16.5161)" fill="#210537"/>
<rect x="5.89264" y="5.28787" width="2.06452" height="4.12903" rx="1" transform="rotate(-44 5.89264 5.28787)" fill="#210537"/>
<rect x="17.2475" y="30.9677" width="2.06452" height="4.12903" rx="1" transform="rotate(-180 17.2475 30.9677)" fill="#210537"/>
<rect x="6.01924" y="26.8387" width="2.06452" height="4.12903" rx="1" transform="rotate(-134 6.01924 26.8387)" fill="#210537"/>
<rect x="27.5701" y="26.7121" width="2.06452" height="4.12903" rx="1" transform="rotate(136 27.5701 26.7121)" fill="#210537"/>
</svg>
