<svg width="45" height="44" viewBox="0 0 45 44" fill="none" xmlns="http://www.w3.org/2000/svg">
<circle cx="22.7314" cy="22" r="16" transform="rotate(30 22.7314 22)" fill="#D9D9D9"/>
<ellipse cx="22.7314" cy="22" rx="9.80645" ry="9.80645" transform="rotate(30 22.7314 22)" fill="#210537"/>
<rect x="29.7683" y="8.77945" width="2.06452" height="4.12903" rx="1" transform="rotate(30 29.7683 8.77945)" fill="#210537"/>
<rect x="37.4277" y="17.9694" width="2.06452" height="4.12903" rx="1" transform="rotate(76 37.4277 17.9694)" fill="#210537"/>
<rect x="31.3438" y="28.7603" width="2.06452" height="4.12903" rx="1" transform="rotate(-60 31.3438 28.7603)" fill="#210537"/>
<rect x="9.51091" y="14.963" width="2.06452" height="4.12903" rx="1" transform="rotate(-60 9.51091 14.963)" fill="#210537"/>
<rect x="18.7009" y="7.30365" width="2.06452" height="4.12903" rx="1" transform="rotate(-14 18.7009 7.30365)" fill="#210537"/>
<rect x="15.6945" y="35.2205" width="2.06452" height="4.12903" rx="1" transform="rotate(-150 15.6945 35.2205)" fill="#210537"/>
<rect x="8.03509" y="26.0305" width="2.06452" height="4.12903" rx="1" transform="rotate(-104 8.03509 26.0305)" fill="#210537"/>
<rect x="26.7619" y="36.6963" width="2.06452" height="4.12903" rx="1" transform="rotate(166 26.7619 36.6963)" fill="#210537"/>
</svg>
